<svg width="22" height="22" viewBox="0 0 22 22" fill="none" xmlns="http://www.w3.org/2000/svg">
<path d="M20 16V7H6V16H20ZM20 2C20.5304 2 21.0391 2.21071 21.4142 2.58579C21.7893 2.96086 22 3.46957 22 4V16C22 16.5304 21.7893 17.0391 21.4142 17.4142C21.0391 17.7893 20.5304 18 20 18H6C4.89 18 4 17.1 4 16V4C4 3.46957 4.21071 2.96086 4.58579 2.58579C4.96086 2.21071 5.46957 2 6 2H7V0H9V2H17V0H19V2H20ZM16.53 10.06L12.09 14.5L9.41 11.82L10.47 10.76L12.09 12.38L15.47 9L16.53 10.06ZM2 20H16V22H2C0.89 22 0 21.1 0 20V8H2V20Z" fill="#89ACD2"/>
</svg>
