<svg width="62" height="69" viewBox="0 0 62 69" fill="none" xmlns="http://www.w3.org/2000/svg">
<path fill-rule="evenodd" clip-rule="evenodd" d="M28.8283 0.313683C25.3717 1.74024 12.9511 9.47377 8.17842 12.0217C-2.08232 17.5001 0.221172 16.1122 0.221172 36.6861C0.221172 53.4859 -1.49678 50.9987 11.1172 58.01C14.5323 59.9088 17.9116 62.0894 21.3406 63.9054C33.3055 70.2455 28.6819 70.4057 43.0953 62.2551C46.4276 60.3715 49.9077 58.4629 53.3271 56.368C63.1528 50.3441 61.3589 54.7605 61.3589 31.8499C61.3589 12.6998 64.5434 18.6725 40.3527 4.58922C37.599 2.98589 32.4161 -1.16674 28.8283 0.313683Z" fill="#89ACD2"/>
<path d="M30.7492 38.8284C31.9655 38.8284 33.0017 38.3779 33.9177 37.4919C34.8037 36.5759 35.2542 35.5398 35.2542 34.3234C35.2542 33.107 34.8037 32.0709 33.9177 31.1549C33.0017 30.2689 31.9655 29.8184 30.7492 29.8184C29.5328 29.8184 28.4967 30.2689 27.5806 31.1549C26.6947 32.0709 26.2442 33.107 26.2442 34.3234C26.2442 35.5398 26.6947 36.5759 27.5806 37.4919C28.4967 38.3779 29.5328 38.8284 30.7492 38.8284ZM30.7492 19.3066C34.8788 19.3066 38.4077 20.8083 41.336 23.7366C44.2643 26.6649 45.7659 30.1938 45.7659 34.3234V36.5008C45.7659 38.0025 45.2404 39.2789 44.2643 40.3301C43.2131 41.3362 42.0118 41.8318 40.5101 41.8318C38.7081 41.8318 37.2214 41.0809 36.0951 39.5793C34.5935 41.0809 32.8215 41.8318 30.7492 41.8318C28.6919 41.8318 26.9199 41.0809 25.4332 39.6393C23.9916 38.1527 23.2408 36.3957 23.2408 34.3234C23.2408 32.2661 23.9916 30.4941 25.4332 29.0075C26.9199 27.5659 28.6919 26.815 30.7492 26.815C32.8215 26.815 34.5785 27.5659 36.0651 29.0075C37.5067 30.4941 38.2576 32.2661 38.2576 34.3234V36.5008C38.2576 37.1165 38.4978 37.6571 38.9483 38.1226C39.3988 38.5882 39.9244 38.8284 40.5101 38.8284C41.1408 38.8284 41.6664 38.5882 42.1169 38.1226C42.5674 37.6571 42.7626 37.1165 42.7626 36.5008V34.3234C42.7626 31.0347 41.6063 28.2116 39.2337 25.8389C36.861 23.4663 34.0379 22.31 30.7492 22.31C27.4605 22.31 24.6374 23.4663 22.2647 25.8389C19.8921 28.2116 18.7358 31.0347 18.7358 34.3234C18.7358 37.6121 19.8921 40.4352 22.2647 42.8079C24.6374 45.1805 27.4605 46.3368 30.7492 46.3368H38.2576V49.3402H30.7492C26.6196 49.3402 23.0906 47.8385 20.1624 44.9102C17.2341 41.9819 15.7324 38.453 15.7324 34.3234C15.7324 30.1938 17.2341 26.6649 20.1624 23.7366C23.0906 20.8083 26.6196 19.3066 30.7492 19.3066Z" fill="white"/>
</svg>
