<svg width="62" height="69" viewBox="0 0 62 69" fill="none" xmlns="http://www.w3.org/2000/svg">
<path fill-rule="evenodd" clip-rule="evenodd" d="M28.8283 0.313683C25.3717 1.74024 12.9511 9.47377 8.17842 12.0217C-2.08232 17.5001 0.221172 16.1122 0.221172 36.6861C0.221172 53.4859 -1.49678 50.9987 11.1172 58.01C14.5323 59.9088 17.9116 62.0894 21.3406 63.9054C33.3055 70.2455 28.6819 70.4057 43.0953 62.2551C46.4276 60.3715 49.9077 58.4629 53.3271 56.368C63.1528 50.3441 61.3589 54.7605 61.3589 31.8499C61.3589 12.6998 64.5434 18.6725 40.3527 4.58922C37.599 2.98589 32.4161 -1.16674 28.8283 0.313683Z" fill="white"/>
<path d="M30.7492 38.8289C31.9655 38.8289 33.0017 38.3784 33.9177 37.4924C34.8037 36.5764 35.2542 35.5402 35.2542 34.3239C35.2542 33.1075 34.8037 32.0714 33.9177 31.1554C33.0017 30.2694 31.9655 29.8189 30.7492 29.8189C29.5328 29.8189 28.4967 30.2694 27.5806 31.1554C26.6947 32.0714 26.2442 33.1075 26.2442 34.3239C26.2442 35.5402 26.6947 36.5764 27.5806 37.4924C28.4967 38.3784 29.5328 38.8289 30.7492 38.8289ZM30.7492 19.3071C34.8788 19.3071 38.4077 20.8088 41.336 23.7371C44.2643 26.6653 45.7659 30.1943 45.7659 34.3239V36.5013C45.7659 38.003 45.2404 39.2794 44.2643 40.3306C43.2131 41.3367 42.0118 41.8323 40.5101 41.8323C38.7081 41.8323 37.2214 41.0814 36.0951 39.5798C34.5935 41.0814 32.8215 41.8323 30.7492 41.8323C28.6919 41.8323 26.9199 41.0814 25.4332 39.6398C23.9916 38.1532 23.2408 36.3962 23.2408 34.3239C23.2408 32.2666 23.9916 30.4946 25.4332 29.008C26.9199 27.5663 28.6919 26.8155 30.7492 26.8155C32.8215 26.8155 34.5785 27.5663 36.0651 29.008C37.5067 30.4946 38.2576 32.2666 38.2576 34.3239V36.5013C38.2576 37.117 38.4978 37.6576 38.9483 38.1231C39.3988 38.5886 39.9244 38.8289 40.5101 38.8289C41.1408 38.8289 41.6664 38.5886 42.1169 38.1231C42.5674 37.6576 42.7626 37.117 42.7626 36.5013V34.3239C42.7626 31.0352 41.6063 28.2121 39.2337 25.8394C36.861 23.4668 34.0379 22.3105 30.7492 22.3105C27.4605 22.3105 24.6374 23.4668 22.2647 25.8394C19.8921 28.2121 18.7358 31.0352 18.7358 34.3239C18.7358 37.6126 19.8921 40.4357 22.2647 42.8084C24.6374 45.181 27.4605 46.3373 30.7492 46.3373H38.2576V49.3406H30.7492C26.6196 49.3406 23.0906 47.839 20.1624 44.9107C17.2341 41.9824 15.7324 38.4535 15.7324 34.3239C15.7324 30.1943 17.2341 26.6653 20.1624 23.7371C23.0906 20.8088 26.6196 19.3071 30.7492 19.3071Z" fill="#89ACD2"/>
</svg>
