<svg width="62" height="69" viewBox="0 0 62 69" fill="none" xmlns="http://www.w3.org/2000/svg">
<path fill-rule="evenodd" clip-rule="evenodd" d="M29.064 0.31584C25.5792 1.75221 13.057 9.53893 8.24529 12.1044C-2.09934 17.6204 0.22298 16.223 0.22298 36.9385C0.22298 53.8537 -1.50901 51.3494 11.2081 58.4089C14.6512 60.3209 18.0581 62.5164 21.5151 64.3449C33.5778 70.7286 28.9164 70.8899 43.4477 62.6833C46.8072 60.7867 50.3158 58.865 53.7631 56.7557C63.6691 50.6904 61.8605 55.1371 61.8605 32.069C61.8605 12.7871 65.0711 18.801 40.6826 4.62078C37.9064 3.00643 32.6812 -1.17476 29.064 0.31584Z" fill="#89ACD2"/>
<path d="M32.3066 41.7711L37.8479 38.5118V41.0605C38.6457 39.5227 39.4518 38.2879 40.2649 37.3605C41.0766 36.433 42.0582 35.6293 43.2096 34.9521C44.4459 34.2249 45.4219 33.8982 46.1445 33.9677C46.8671 34.0372 47.4546 34.4293 47.9141 35.1385C48.8455 33.4476 49.6934 32.167 50.4606 31.3049C51.2277 30.4428 52.1745 29.678 53.3008 29.0148C54.9604 28.0387 56.2552 27.8329 57.1881 28.4044C58.1195 28.9703 58.5887 30.4442 58.5887 32.8191V43.8304L52.6395 47.3303V37.3201C52.6395 36.5206 52.5044 36.0089 52.2315 35.7878C51.8375 35.4124 51.3391 35.4013 50.7515 35.7475C50.054 36.1577 49.4915 36.7765 49.0627 37.6024C48.6395 38.4256 48.425 39.474 48.425 40.7407V49.8109L42.4758 53.3107V43.6552C42.4758 42.8849 42.4355 42.3843 42.3561 42.1563C42.2322 41.7906 42.0122 41.5653 41.699 41.4791C41.3899 41.3915 41.0209 41.4721 40.6032 41.7196C39.921 42.1215 39.3571 42.7444 38.9186 43.5829C38.48 44.4255 38.2614 45.5115 38.2614 46.845V55.7914L32.3122 59.2912V41.7697L32.3066 41.7711Z" fill="white"/>
</svg>
