<svg width="43" height="52" viewBox="0 0 43 52" fill="none" xmlns="http://www.w3.org/2000/svg">
<path d="M0.373047 22.8036L9.35599 17.5131V21.6502C10.6493 19.1539 11.9561 17.1497 13.2742 15.6443C14.59 14.1389 16.1812 12.8343 18.0478 11.7351C20.052 10.5547 21.6342 10.0243 22.8056 10.1372C23.977 10.25 24.9294 10.8865 25.6742 12.0376C27.1842 9.29303 28.5587 7.21431 29.8023 5.81496C31.046 4.41561 32.5807 3.17425 34.4067 2.09765C37.097 0.513219 39.1961 0.17918 40.7083 1.10682C42.2182 2.02542 42.9788 4.41786 42.9788 8.27285V26.1462L33.3346 31.8271V15.5788C33.3346 14.281 33.1156 13.4505 32.6733 13.0916C32.0345 12.4822 31.2265 12.4641 30.2741 13.0261C29.1433 13.692 28.2315 14.6963 27.5363 16.037C26.8502 17.3732 26.5026 19.075 26.5026 21.1311V35.8536L16.8583 41.5346V25.8618C16.8583 24.6114 16.7929 23.7989 16.6642 23.4287C16.4633 22.8351 16.1067 22.4695 15.5989 22.3296C15.0978 22.1874 14.4997 22.3183 13.8226 22.72C12.7167 23.3723 11.8026 24.3835 11.0916 25.7445C10.3807 27.1122 10.0263 28.8749 10.0263 31.0394V45.5611L0.382077 51.242V22.8013L0.373047 22.8036Z" fill="white"/>
</svg>
