<svg width="62" height="69" viewBox="0 0 62 69" fill="none" xmlns="http://www.w3.org/2000/svg">
<path fill-rule="evenodd" clip-rule="evenodd" d="M29.0803 0.313683C25.6237 1.74024 13.2031 9.47377 8.43038 12.0217C-1.83036 17.5001 0.473125 16.1122 0.473125 36.6861C0.473125 53.4859 -1.24482 50.9987 11.3691 58.01C14.7843 59.9088 18.1636 62.0894 21.5926 63.9054C33.5574 70.2455 28.9339 70.4057 43.3473 62.2551C46.6796 60.3715 50.1597 58.4629 53.579 56.368C63.4047 50.3441 61.6108 54.7605 61.6108 31.8499C61.6108 12.6998 64.7954 18.6725 40.6046 4.58922C37.8509 2.98589 32.6681 -1.16674 29.0803 0.313683Z" fill="#89ACD2"/>
<path d="M26.5568 42.2898L26.89 37.7898L36.0311 30.4281C36.4358 30.0983 35.9478 29.9388 35.4122 30.226L24.1287 36.5983L19.2486 35.2154C18.2012 34.9494 18.1893 34.3005 19.4867 33.8324L38.4949 27.2792C39.3638 26.9281 40.197 27.4707 39.8637 28.6622L36.6263 42.2898C36.4001 43.2579 35.7455 43.492 34.8409 43.0451L29.9133 39.7898L27.5447 41.843C27.2709 42.0877 27.0448 42.2898 26.5568 42.2898Z" fill="white"/>
<circle cx="31.0001" cy="34.3244" r="16.3771" stroke="white" stroke-width="3"/>
</svg>
