<svg width="62" height="69" viewBox="0 0 62 69" fill="none" xmlns="http://www.w3.org/2000/svg">
<path fill-rule="evenodd" clip-rule="evenodd" d="M29.3303 0.313683C25.8737 1.74024 13.4531 9.47377 8.68038 12.0217C-1.58036 17.5001 0.723125 16.1122 0.723125 36.6861C0.723125 53.4859 -0.994823 50.9987 11.6191 58.01C15.0343 59.9088 18.4136 62.0894 21.8426 63.9054C33.8074 70.2455 29.1839 70.4057 43.5973 62.2551C46.9296 60.3715 50.4097 58.4629 53.829 56.368C63.6547 50.3441 61.8608 54.7605 61.8608 31.8499C61.8608 12.6998 65.0454 18.6725 40.8546 4.58922C38.1009 2.98589 32.9181 -1.16674 29.3303 0.313683Z" fill="white"/>
<path d="M31.3177 17.877C22.2926 17.877 14.9369 25.1958 14.9369 34.1759C14.9369 37.0541 15.6973 39.85 17.1188 42.3171L14.8047 50.7708L23.4827 48.5011C25.8795 49.8004 28.5738 50.4912 31.3177 50.4912C40.3429 50.4912 47.6985 43.1723 47.6985 34.1923C47.6985 29.8339 45.996 25.7386 42.905 22.663C39.8139 19.571 35.6981 17.877 31.3177 17.877ZM31.3343 20.6236C34.9708 20.6236 38.3759 22.038 40.9545 24.6037C43.5166 27.1695 44.9381 30.574 44.9381 34.1923C44.9381 41.6592 38.8222 47.7281 31.3177 47.7281C28.8714 47.7281 26.4746 47.0867 24.3918 45.8367L23.896 45.5571L18.7387 46.9058L20.1107 41.9059L19.7801 41.3796C18.4247 39.258 17.6974 36.7416 17.6974 34.1759C17.7139 26.709 23.8133 20.6236 31.3343 20.6236ZM25.5159 26.6432C25.2514 26.6432 24.8051 26.7418 24.4249 27.153C24.0612 27.5642 22.9868 28.5675 22.9868 30.5575C22.9868 32.5641 24.458 34.4884 24.6398 34.7679C24.8712 35.0475 27.549 39.1593 31.6649 40.9027C32.6401 41.3467 33.4005 41.5934 33.9955 41.7743C34.9708 42.0868 35.8634 42.0375 36.5741 41.9388C37.3676 41.8237 38.9875 40.952 39.3346 39.9981C39.6817 39.0441 39.6817 38.2383 39.5825 38.0573C39.4668 37.8929 39.2023 37.7942 38.7891 37.6133C38.3759 37.383 36.3593 36.3962 35.9956 36.2646C35.6154 36.133 35.384 36.0673 35.0699 36.462C34.8055 36.8732 34.0121 37.7942 33.7806 38.0573C33.5327 38.3369 33.3013 38.3698 32.9046 38.1725C32.4748 37.9587 31.1524 37.531 29.5987 36.1495C28.3755 35.064 27.5655 33.7318 27.3176 33.3206C27.1192 32.9259 27.301 32.6792 27.4994 32.4983C27.6812 32.3174 27.9457 32.0213 28.111 31.7746C28.3259 31.5443 28.392 31.3634 28.5242 31.1003C28.6565 30.8207 28.5904 30.5904 28.4912 30.3931C28.392 30.2121 27.5655 28.1727 27.2184 27.3668C26.8878 26.5774 26.5572 26.6761 26.2927 26.6596C26.0613 26.6596 25.7969 26.6432 25.5159 26.6432Z" fill="#89ACD2"/>
</svg>
